<svg xmlns="http://www.w3.org/2000/svg" viewBox="0 0 50 50" preserveAspectRatio="xMidYMid meet"><path fill="#6e9932" d="M25 1L25 13L19 13ZM37 13L25 13L25 7ZM25 49L25 37L31 37ZM13 37L25 37L25 43ZM13 13L13 25L7 25ZM49 25L37 25L37 19ZM37 37L37 25L43 25ZM1 25L13 25L13 31Z"/><path fill="#a1cc66" d="M1 1L13 1L13 7ZM49 1L49 13L43 13ZM49 49L37 49L37 43ZM1 49L1 37L7 37ZM13 13L25 13L25 25L13 25ZM20.4 23.8L23.8 17L17 17ZM37 13L37 25L25 25L25 13ZM26.2 20.4L33 23.8L33 17ZM37 37L25 37L25 25L37 25ZM29.6 26.2L26.2 33L33 33ZM13 37L13 25L25 25L25 37ZM23.8 29.6L17 26.2L17 33Z"/></svg>