<svg xmlns="http://www.w3.org/2000/svg" viewBox="0 0 50 50" preserveAspectRatio="xMidYMid meet"><path fill="#e5e5e5" d="M19 13L13 7L19 1L25 7ZM25 7L31 1L37 7L31 13ZM31 37L37 43L31 49L25 43ZM25 43L19 49L13 43L19 37ZM7 25L1 19L7 13L13 19ZM37 19L43 13L49 19L43 25ZM43 25L49 31L43 37L37 31ZM13 31L7 37L1 31L7 25Z"/><path fill="#66cc85" d="M1 1L13 1L13 13ZM49 1L49 13L37 13ZM49 49L37 49L37 37ZM1 49L1 37L13 37Z"/><path fill="#4c4c4c" d="M25 13L25 22L19 13ZM37 25L28 25L37 19ZM25 37L25 28L31 37ZM13 25L22 25L13 31Z"/></svg>