<svg xmlns="http://www.w3.org/2000/svg" viewBox="0 0 50 50" preserveAspectRatio="xMidYMid meet"><path fill="#9084d6" d="M25 1L25 13L13 13ZM37 13L25 13L25 1ZM25 49L25 37L37 37ZM13 37L25 37L25 49ZM13 13L13 25L1 25ZM49 25L37 25L37 13ZM37 37L37 25L49 25ZM1 25L13 25L13 37ZM1 1L13 1L13 7ZM49 1L49 13L43 13ZM49 49L37 49L37 43ZM1 49L1 37L7 37Z"/><path fill="#c7c1ea" d="M13 13L25 13L25 21.4L17.8 17.8L21.4 25L13 25ZM37 13L37 25L28.6 25L32.2 17.8L25 21.4L25 13ZM37 37L25 37L25 28.6L32.2 32.2L28.6 25L37 25ZM13 37L13 25L21.4 25L17.8 32.2L25 28.6L25 37Z"/></svg>