<svg xmlns="http://www.w3.org/2000/svg" viewBox="0 0 50 50" preserveAspectRatio="xMidYMid meet"><path fill="#545454" d="M13 1L25 1L25 7ZM37 1L37 13L31 13ZM37 49L25 49L25 43ZM13 49L13 37L19 37ZM1 13L13 13L13 19ZM49 13L49 25L43 25ZM49 37L37 37L37 31ZM1 37L1 25L7 25Z"/><path fill="#e8e8e8" d="M13 13L1 13L1 1ZM37 13L37 1L49 1ZM37 37L49 37L49 49ZM13 37L13 49L1 49Z"/><path fill="#d17599" d="M13 13L25 13L25 25L13 25ZM16 20.5L20.5 25L25 20.5L20.5 16ZM37 13L37 25L25 25L25 13ZM29.5 16L25 20.5L29.5 25L34 20.5ZM37 37L25 37L25 25L37 25ZM34 29.5L29.5 25L25 29.5L29.5 34ZM13 37L13 25L25 25L25 37ZM20.5 34L25 29.5L20.5 25L16 29.5Z"/></svg>