<svg xmlns="http://www.w3.org/2000/svg" viewBox="0 0 50 50" preserveAspectRatio="xMidYMid meet"><path fill="#4c4c4c" d="M25 1L25 13L19 13ZM37 13L25 13L25 7ZM25 49L25 37L31 37ZM13 37L25 37L25 43ZM13 13L13 25L7 25ZM49 25L37 25L37 19ZM37 37L37 25L43 25ZM1 25L13 25L13 31Z"/><path fill="#b2e5b9" d="M13 1L13 13L1 13ZM49 13L37 13L37 1ZM37 49L37 37L49 37ZM1 37L13 37L13 49Z"/><path fill="#66cc73" d="M18 21a3,3 0 1,1 6,0a3,3 0 1,1 -6,0M26 21a3,3 0 1,1 6,0a3,3 0 1,1 -6,0M26 29a3,3 0 1,1 6,0a3,3 0 1,1 -6,0M18 29a3,3 0 1,1 6,0a3,3 0 1,1 -6,0"/></svg>